<?xml version="1.0" encoding="utf-8"?>
<!-- Generator: Adobe Illustrator 18.0.0, SVG Export Plug-In . SVG Version: 6.00 Build 0)  -->
<!DOCTYPE svg PUBLIC "-//W3C//DTD SVG 1.1//EN" "http://www.w3.org/Graphics/SVG/1.1/DTD/svg11.dtd">
<svg version="1.1" id="Layer_1" xmlns="http://www.w3.org/2000/svg" xmlns:xlink="http://www.w3.org/1999/xlink" x="0px" y="0px"
	 viewBox="0 0 64 64" enable-background="new 0 0 64 64" xml:space="preserve">
<g>
	<g>
		<path d="M54,64c-5.5,0-10-4.5-10-10c0-0.7,0.1-1.5,0.2-2.1L17.6,38.5C15.7,40.7,13,42,10,42C4.5,42,0,37.5,0,32s4.5-10,10-10
			c3,0,5.7,1.3,7.6,3.5l26.7-13.3C44.1,11.5,44,10.7,44,10c0-5.5,4.5-10,10-10s10,4.5,10,10s-4.5,10-10,10c-3.4,0-6.3-1.7-8.1-4.2
			L19.5,29c0.3,1,0.5,2,0.5,3s-0.2,2.1-0.5,3l26.3,13.2c1.8-2.5,4.8-4.2,8.1-4.2c5.5,0,10,4.5,10,10S59.5,64,54,64z M54,48
			c-3.3,0-6,2.7-6,6s2.7,6,6,6s6-2.7,6-6S57.3,48,54,48z M10,26c-3.3,0-6,2.7-6,6s2.7,6,6,6s6-2.7,6-6S13.3,26,10,26z M54,4
			c-3.3,0-6,2.7-6,6s2.7,6,6,6s6-2.7,6-6S57.3,4,54,4z"/>
	</g>
</g>
</svg>
